<svg width="168" height="36" viewBox="0 0 168 36" fill="none" xmlns="http://www.w3.org/2000/svg">
<path d="M35.9998 17.9206C36.0155 21.4807 34.9752 24.9654 33.0103 27.9342C31.0455 30.903 28.2445 33.2225 24.9614 34.5994C21.6783 35.9762 18.0606 36.3486 14.5659 35.6694C11.0712 34.9902 7.85639 33.2899 5.32801 30.7836C2.79962 28.2773 1.07123 25.0775 0.361414 21.5889C-0.348406 18.1002 -0.00777676 14.4795 1.34023 11.1844C2.68823 7.88942 4.98306 5.06812 7.93452 3.07733C10.886 1.08655 14.3615 0.0156845 17.9216 0.000171135C22.6953 -0.0206306 27.2817 1.85569 30.672 5.2164C34.0623 8.5771 35.9788 13.1469 35.9998 17.9206Z" fill="#8DC63F"/>
<path d="M34.6501 17.9274C34.665 21.2199 33.7033 24.4429 31.8864 27.1889C30.0696 29.9348 27.4792 32.0803 24.443 33.3541C21.4068 34.6278 18.061 34.9726 14.8288 34.3449C11.5967 33.7171 8.62321 32.1449 6.28454 29.8272C3.94586 27.5096 2.347 24.5504 1.69012 21.324C1.03325 18.0976 1.34788 14.7489 2.59423 11.7013C3.84057 8.65373 5.96265 6.04418 8.69211 4.20266C11.4216 2.36114 14.6358 1.37037 17.9284 1.35563C22.3432 1.33621 26.585 3.07114 29.7208 6.17884C32.8567 9.28654 34.6297 13.5125 34.6501 17.9274Z" fill="#F9E988"/>
<path d="M18.307 2.43385C19.3652 2.24601 20.4483 2.24601 21.5065 2.43385C22.575 2.60303 23.6079 2.94908 24.5626 3.45776C25.5122 3.9795 26.3326 4.68776 27.1491 5.35167C27.9657 6.01558 28.7783 6.69515 29.5518 7.43863C30.3413 8.17052 31.0304 9.00387 31.6009 9.91689C32.1883 10.8227 32.6697 11.7929 33.0357 12.8086C33.7309 14.8512 33.9722 17.0517 33.6252 19.1504H33.5222C33.1739 17.0699 32.7017 15.0873 31.957 13.2012C31.6074 12.2515 31.1961 11.3256 30.7257 10.4295C30.2349 9.53327 29.694 8.66538 29.1057 7.82993C28.5073 6.98534 27.7741 6.245 26.9352 5.63863C26.09 5.03602 25.1183 4.64602 24.1778 4.27558C23.2374 3.90515 22.3048 3.52167 21.3239 3.23993C20.3431 2.95819 19.3465 2.74689 18.3057 2.54211L18.307 2.43385Z" fill="white"/>
<path d="M26.4447 12.0515C25.2369 11.7019 23.9847 11.2063 22.7169 10.7054C22.6438 10.3871 22.3621 9.99063 21.7921 9.50671C20.9638 8.78802 19.4077 8.80628 18.0629 9.12454C16.5786 8.77497 15.1125 8.65106 13.7051 8.9941C2.19425 12.165 8.7212 19.9011 4.49512 27.6776C5.09642 28.9532 11.5777 36.3958 20.956 34.3989C20.956 34.3989 17.7486 26.6915 24.9864 22.9924C30.8573 19.9806 35.099 14.4085 26.4447 12.0515Z" fill="#8BC53F"/>
<path d="M27.8663 17.1138C27.8671 17.2519 27.8269 17.387 27.7509 17.5022C27.6749 17.6174 27.5664 17.7074 27.4392 17.7609C27.312 17.8145 27.1717 17.8291 27.0362 17.8029C26.9007 17.7767 26.776 17.711 26.6779 17.6139C26.5797 17.5169 26.5126 17.3929 26.4849 17.2577C26.4572 17.1225 26.4702 16.9821 26.5223 16.8543C26.5744 16.7265 26.6633 16.617 26.7776 16.5397C26.8919 16.4624 27.0266 16.4207 27.1646 16.4199C27.3496 16.4192 27.5273 16.4919 27.6588 16.6219C27.7903 16.752 27.865 16.9289 27.8663 17.1138Z" fill="white"/>
<path d="M18.0625 9.11742C18.9012 9.17742 21.9338 10.1609 22.7164 10.6983C22.0643 8.80699 19.869 8.55525 18.0625 9.11742Z" fill="#009345"/>
<path d="M18.8611 13.9014C18.8614 14.5382 18.6728 15.1607 18.3192 15.6902C17.9657 16.2198 17.463 16.6326 16.8748 16.8764C16.2866 17.1203 15.6393 17.1842 15.0148 17.0601C14.3902 16.9361 13.8165 16.6296 13.3662 16.1794C12.9158 15.7293 12.6091 15.1557 12.4848 14.5312C12.3605 13.9067 12.4242 13.2594 12.6678 12.6711C12.9114 12.0828 13.324 11.58 13.8534 11.2262C14.3828 10.8724 15.0052 10.6836 15.642 10.6836C16.0647 10.6834 16.4832 10.7665 16.8738 10.9282C17.2644 11.0898 17.6192 11.3268 17.9182 11.6256C18.2171 11.9244 18.4543 12.2792 18.6161 12.6697C18.7778 13.0602 18.8611 13.4787 18.8611 13.9014Z" fill="white"/>
<path d="M17.9057 13.9304C17.9057 14.3782 17.7729 14.816 17.524 15.1884C17.2752 15.5607 16.9216 15.851 16.5078 16.0223C16.0941 16.1937 15.6388 16.2386 15.1996 16.1512C14.7603 16.0638 14.3568 15.8482 14.0402 15.5315C13.7235 15.2148 13.5078 14.8114 13.4205 14.3721C13.3331 13.9329 13.3779 13.4776 13.5493 13.0638C13.7207 12.6501 14.0109 12.2964 14.3833 12.0476C14.7557 11.7988 15.1935 11.666 15.6413 11.666C16.2419 11.666 16.8178 11.9046 17.2424 12.3292C17.6671 12.7539 17.9057 13.3298 17.9057 13.9304Z" fill="#58595B"/>
<path d="M30.4735 18.5324C27.8648 20.3702 24.8987 21.7646 20.6909 21.7646C18.7213 21.7646 18.3222 19.6776 17.0204 20.6976C16.3487 21.2272 13.98 22.4115 12.1004 22.3215C10.2209 22.2315 7.17392 21.1294 6.32479 17.1172C5.98827 21.1294 5.81609 24.085 4.30957 27.4724C7.30957 32.2763 14.4626 35.982 20.9557 34.3855C20.2578 29.5137 24.5152 24.7424 26.9139 22.3007C27.827 21.3759 29.5617 19.8668 30.4735 18.5298V18.5324Z" fill="#8BC53F"/>
<path d="M30.372 18.6518C29.562 19.39 28.5981 19.9365 27.6172 20.4192C26.6244 20.8906 25.5894 21.2674 24.5259 21.5448C23.4616 21.82 22.3516 22.0274 21.2272 21.9257C20.1029 21.8239 18.9538 21.4418 18.209 20.5992L18.2442 20.5587C19.1572 21.1509 20.2112 21.3596 21.2599 21.3896C22.3228 21.4219 23.386 21.3344 24.4294 21.1287C25.4834 20.9081 26.5144 20.5893 27.509 20.1765C28.5042 19.7657 29.489 19.2896 30.3368 18.6113L30.372 18.6518Z" fill="#58595B"/>
<path d="M51.12 9.528C48.384 9.528 46.296 10.416 44.856 12.24C43.584 13.824 42.96 15.912 42.96 18.456C42.96 21.048 43.56 23.112 44.784 24.648C46.176 26.424 48.312 27.336 51.168 27.336C53.016 27.336 54.6 26.808 55.92 25.752C57.336 24.624 58.224 23.064 58.608 21.048H55.872C55.536 22.344 54.96 23.328 54.144 23.976C53.376 24.552 52.368 24.864 51.144 24.864C49.272 24.864 47.88 24.264 46.992 23.112C46.176 22.032 45.768 20.472 45.768 18.456C45.768 16.488 46.176 14.952 47.016 13.848C47.928 12.6 49.272 12 51.072 12C52.272 12 53.256 12.24 54.024 12.768C54.816 13.296 55.344 14.112 55.632 15.24H58.368C58.104 13.512 57.36 12.12 56.112 11.112C54.816 10.056 53.136 9.528 51.12 9.528ZM66.7781 14.256C64.8821 14.256 63.3701 14.856 62.2421 16.104C61.0901 17.328 60.5381 18.888 60.5381 20.808C60.5381 22.704 61.0901 24.264 62.2181 25.464C63.3701 26.712 64.8821 27.336 66.7781 27.336C68.6501 27.336 70.1861 26.712 71.3381 25.464C72.4421 24.264 73.0181 22.704 73.0181 20.808C73.0181 18.888 72.4421 17.328 71.3141 16.104C70.1621 14.856 68.6501 14.256 66.7781 14.256ZM66.7781 16.488C67.9061 16.488 68.7941 16.92 69.4181 17.832C69.9461 18.6 70.2341 19.608 70.2341 20.808C70.2341 21.984 69.9461 22.968 69.4181 23.76C68.7941 24.648 67.9061 25.104 66.7781 25.104C65.6261 25.104 64.7621 24.648 64.1381 23.76C63.6101 22.992 63.3461 22.008 63.3461 20.808C63.3461 19.608 63.6101 18.6 64.1381 17.832C64.7621 16.92 65.6261 16.488 66.7781 16.488ZM77.2568 9.528C76.7288 9.528 76.2968 9.696 75.9368 10.032C75.5768 10.368 75.4088 10.8 75.4088 11.328C75.4088 11.856 75.5768 12.288 75.9368 12.648C76.2968 12.984 76.7288 13.152 77.2568 13.152C77.7848 13.152 78.2168 12.984 78.5768 12.648C78.9368 12.312 79.1288 11.856 79.1288 11.328C79.1288 10.8 78.9368 10.368 78.6008 10.032C78.2408 9.696 77.7848 9.528 77.2568 9.528ZM75.8888 14.592V27H78.6248V14.592H75.8888ZM88.4261 14.256C87.6821 14.256 87.0101 14.4 86.3861 14.712C85.7861 15 85.2341 15.456 84.7541 16.032V14.592H82.0181V27H84.7541V19.536C84.8501 18.552 85.1861 17.784 85.7621 17.256C86.2661 16.776 86.8661 16.536 87.5381 16.536C89.4101 16.536 90.3461 17.544 90.3461 19.584V27H93.0821V19.344C93.0821 15.936 91.5221 14.256 88.4261 14.256ZM103.643 9.528C101.099 9.528 99.0834 10.392 97.5954 12.168C96.1794 13.824 95.4834 15.936 95.4834 18.504C95.4834 21.048 96.1794 23.136 97.5954 24.744C99.1074 26.472 101.219 27.336 103.955 27.336C105.491 27.336 106.859 27.144 108.107 26.76C109.283 26.376 110.315 25.848 111.227 25.128V17.88H103.883V20.28H108.419V23.808C107.843 24.144 107.243 24.408 106.571 24.6C105.851 24.792 105.083 24.888 104.267 24.888C102.179 24.888 100.643 24.312 99.6594 23.16C98.7474 22.08 98.2914 20.52 98.2914 18.504C98.2914 16.392 98.7954 14.784 99.8274 13.632C100.763 12.528 102.035 12 103.643 12C104.939 12 105.995 12.264 106.787 12.816C107.555 13.368 108.083 14.184 108.323 15.288H111.155C110.843 13.368 110.075 11.952 108.851 10.992C107.579 10.008 105.851 9.528 103.643 9.528ZM119.384 14.256C117.536 14.256 116.072 14.88 115.016 16.152C113.912 17.4 113.384 18.936 113.384 20.784C113.384 22.848 113.96 24.456 115.112 25.632C116.192 26.76 117.656 27.336 119.504 27.336C121.16 27.336 122.528 26.856 123.632 25.92C124.496 25.152 125.072 24.168 125.36 23.016H122.624C122.288 23.712 121.928 24.216 121.52 24.528C120.992 24.912 120.32 25.104 119.48 25.104C118.496 25.104 117.728 24.792 117.2 24.192C116.672 23.592 116.36 22.704 116.264 21.552H125.552C125.552 19.32 125.048 17.568 124.064 16.32C122.984 14.928 121.424 14.256 119.384 14.256ZM119.456 16.488C121.376 16.488 122.456 17.472 122.696 19.488H116.312C116.48 18.504 116.816 17.76 117.32 17.256C117.848 16.728 118.544 16.488 119.456 16.488ZM133.289 14.256C131.345 14.256 129.833 14.904 128.753 16.2C127.745 17.376 127.241 18.912 127.241 20.784C127.241 22.704 127.745 24.264 128.777 25.464C129.833 26.712 131.321 27.336 133.241 27.336C134.849 27.336 136.145 26.928 137.105 26.136C138.089 25.32 138.737 24.072 139.025 22.392H136.313C136.097 24.192 135.089 25.104 133.265 25.104C132.209 25.104 131.417 24.72 130.889 23.976C130.313 23.208 130.049 22.128 130.049 20.76C130.049 19.416 130.337 18.36 130.913 17.616C131.489 16.848 132.281 16.488 133.289 16.488C134.105 16.488 134.777 16.68 135.281 17.064C135.761 17.448 136.097 18.024 136.265 18.816H138.977C138.737 17.256 138.113 16.104 137.129 15.336C136.169 14.616 134.897 14.256 133.289 14.256ZM141.174 9.528V27H143.91V22.656L145.158 21.48L149.502 27H153.006L147.03 19.728L152.526 14.592H148.998L143.91 19.512V9.528H141.174ZM160.2 14.256C158.304 14.256 156.792 14.856 155.664 16.104C154.512 17.328 153.96 18.888 153.96 20.808C153.96 22.704 154.512 24.264 155.64 25.464C156.792 26.712 158.304 27.336 160.2 27.336C162.072 27.336 163.608 26.712 164.76 25.464C165.864 24.264 166.44 22.704 166.44 20.808C166.44 18.888 165.864 17.328 164.736 16.104C163.584 14.856 162.072 14.256 160.2 14.256ZM160.2 16.488C161.328 16.488 162.216 16.92 162.84 17.832C163.368 18.6 163.656 19.608 163.656 20.808C163.656 21.984 163.368 22.968 162.84 23.76C162.216 24.648 161.328 25.104 160.2 25.104C159.048 25.104 158.184 24.648 157.56 23.76C157.032 22.992 156.768 22.008 156.768 20.808C156.768 19.608 157.032 18.6 157.56 17.832C158.184 16.92 159.048 16.488 160.2 16.488Z" fill="#4C4C4C"/>
</svg>
