<svg width="220" height="34" viewBox="0 0 220 34" fill="none" xmlns="http://www.w3.org/2000/svg">
<path d="M42.4209 26.2905C41.9098 26.2905 41.5454 26.1828 41.337 25.9675C41.1422 25.7636 41.0459 25.4199 41.0459 24.9686V9.6434C41.0459 9.19207 41.1467 8.84837 41.3622 8.64448C41.5776 8.40848 41.926 8.30078 42.421 8.30078H48.9041C51.3745 8.30078 53.1895 8.81626 54.356 9.85873C55.5201 10.9012 56.0999 12.4454 56.0999 14.5188C56.0999 16.5602 55.5201 18.1067 54.356 19.1491C53.2124 20.1687 51.3951 20.6842 48.9041 20.6842H46.3901V24.9686C46.3901 25.4199 46.2824 25.7636 46.0738 25.9675C45.863 26.1829 45.4986 26.2905 44.9876 26.2905H42.4209ZM48.4846 16.8398C49.2042 16.8398 49.7634 16.6451 50.1507 16.2602C50.5586 15.873 50.7557 15.2933 50.7557 14.5189C50.7557 13.7239 50.5585 13.1328 50.1507 12.7479C49.7634 12.3492 49.2042 12.1568 48.4846 12.1568H46.39V16.8398H48.4846Z" fill="#333333"/>
<path d="M62.3534 26.6866C60.692 26.6866 59.3605 26.1596 58.3567 25.0966C57.369 24.0243 56.874 22.5099 56.874 20.5763C56.874 19.0939 57.2063 17.7948 57.8846 16.6883C58.5721 15.5725 59.5277 14.7225 60.763 14.1223C62.0188 13.4991 63.4534 13.1875 65.0805 13.1875C66.4188 13.1875 67.599 13.3387 68.6257 13.6388C69.6684 13.9275 70.6195 14.3376 71.4834 14.8852V25.4723C71.4834 25.8069 71.4192 26.0222 71.3001 26.1276C71.1717 26.2353 70.9242 26.2903 70.5598 26.2903H67.858C67.6655 26.2903 67.5142 26.2582 67.4065 26.2147C67.3057 26.1391 67.214 26.0314 67.143 25.8917L66.7992 25.0967C66.2836 25.6442 65.6717 26.0429 64.9475 26.2903C64.2441 26.5583 63.3733 26.6866 62.3534 26.6866ZM64.3403 23.0897C65.0278 23.0897 65.5641 22.9178 65.9514 22.5856C66.3386 22.2511 66.5311 21.7677 66.5311 21.156V17.032C66.1989 16.8716 65.7749 16.796 65.2639 16.796C64.3289 16.796 63.5772 17.119 63.0134 17.7743C62.4703 18.4181 62.1907 19.3414 62.1907 20.5236C62.1908 22.2305 62.9103 23.0897 64.3403 23.0897Z" fill="#333333"/>
<path d="M75.1688 26.2902C74.6532 26.2902 74.2934 26.1825 74.0826 25.9672C73.8694 25.7633 73.7617 25.4196 73.7617 24.9683V14.4109C73.7617 14.0902 73.8144 13.8748 73.9222 13.7786C74.046 13.6503 74.2935 13.5838 74.6624 13.5838H77.3918C77.6003 13.5838 77.7562 13.6274 77.8639 13.6915C77.9877 13.7465 78.0587 13.8542 78.0794 14.0146L78.2077 14.8096C78.7027 14.3147 79.3466 13.9275 80.1419 13.6388C80.9531 13.3387 81.856 13.1875 82.8438 13.1875C84.2715 13.1875 85.4265 13.5954 86.3087 14.411C87.1887 15.206 87.6287 16.3882 87.6287 17.9553V24.9683C87.6287 25.4197 87.5279 25.7634 87.3125 25.9673C87.12 26.1827 86.7694 26.2903 86.2537 26.2903H83.687C83.176 26.2903 82.807 26.1826 82.5756 25.9673C82.3647 25.7634 82.2593 25.4197 82.2593 24.9683V18.299C82.2593 17.7743 82.1447 17.3871 81.9155 17.1603C81.6886 16.9357 81.3242 16.8166 80.8292 16.8166C80.3021 16.8166 79.8782 16.9563 79.5619 17.2359C79.2617 17.5269 79.1105 17.9118 79.1105 18.4067V24.9683C79.1105 25.4197 79.0028 25.7634 78.7942 25.9673C78.5994 26.1827 78.2465 26.2903 77.7354 26.2903H75.1688V26.2902Z" fill="#333333"/>
<path d="M96.9857 26.6867C94.5152 26.6867 92.6086 26.1185 91.2703 24.9683C89.9273 23.8205 89.2559 22.1549 89.2559 19.9646C89.2559 18.622 89.5675 17.4398 90.1863 16.4203C90.7982 15.4007 91.6896 14.6057 92.8561 14.0352C94.0432 13.4762 95.4342 13.1875 97.0407 13.1875C98.253 13.1875 99.2796 13.3066 100.107 13.5312C100.955 13.7672 101.707 14.1223 102.357 14.5943C102.55 14.7226 102.646 14.8738 102.646 15.0663C102.646 15.206 102.577 15.4008 102.438 15.6253L101.354 17.504C101.23 17.7514 101.079 17.8706 100.902 17.8706C100.799 17.8706 100.627 17.8064 100.403 17.6667C99.9237 17.3643 99.4722 17.1397 99.0483 17C98.6449 16.8602 98.1362 16.7961 97.5128 16.7961C96.6305 16.7961 95.9178 17.0756 95.3747 17.6346C94.843 18.2028 94.5795 18.9749 94.5795 19.9647C94.5795 20.9727 94.8476 21.7472 95.3953 22.2947C95.943 22.8217 96.697 23.0897 97.6458 23.0897C98.2096 23.0897 98.7252 23.0026 99.1835 22.8537C99.6396 22.691 100.107 22.4665 100.584 22.187C100.831 22.0473 101.01 21.9716 101.111 21.9716C101.271 21.9716 101.411 22.1022 101.542 22.3473L102.729 24.3887C102.818 24.5606 102.862 24.7003 102.862 24.808C102.862 24.9684 102.754 25.1196 102.545 25.2593C101.803 25.7313 100.994 26.0864 100.107 26.311C99.2407 26.5584 98.2003 26.6867 96.9857 26.6867Z" fill="#333333"/>
<path d="M109.569 26.6866C107.91 26.6866 106.578 26.1596 105.575 25.0966C104.587 24.0243 104.092 22.5099 104.092 20.5763C104.092 19.0939 104.431 17.7948 105.096 16.6883C105.783 15.5725 106.75 14.7225 107.985 14.1223C109.237 13.4991 110.671 13.1875 112.294 13.1875C113.637 13.1875 114.817 13.3387 115.843 13.6388C116.886 13.9275 117.842 14.3376 118.701 14.8852V25.4723C118.701 25.8069 118.637 26.0222 118.506 26.1276C118.401 26.2353 118.142 26.2903 117.778 26.2903H115.076C114.881 26.2903 114.732 26.2582 114.624 26.2147C114.517 26.1391 114.432 26.0314 114.361 25.8917L114.017 25.0967C113.506 25.6442 112.889 26.0429 112.165 26.2903C111.455 26.5583 110.596 26.6866 109.569 26.6866ZM111.558 23.0897C112.246 23.0897 112.782 22.9178 113.169 22.5856C113.561 22.2511 113.754 21.7677 113.754 21.156V17.032C113.417 16.8716 112.99 16.796 112.482 16.796C111.547 16.796 110.8 17.119 110.231 17.7743C109.683 18.4181 109.415 19.3414 109.415 20.5236C109.415 22.2305 110.124 23.0897 111.558 23.0897Z" fill="#333333"/>
<path d="M135.329 25.2802C135.448 25.4199 135.501 25.5803 135.501 25.7636C135.501 25.9149 135.457 26.0546 135.35 26.16C135.244 26.2471 135.104 26.2905 134.921 26.2905H130.817C130.581 26.2905 130.388 26.2676 130.269 26.2355C130.161 26.1828 130.044 26.0866 129.925 25.9468L126.327 21.0484V24.9685C126.327 25.4198 126.22 25.7635 126.004 25.9674C125.791 26.1828 125.436 26.2905 124.932 26.2905H122.354C121.838 26.2905 121.483 26.1828 121.279 25.9674C121.086 25.7635 120.979 25.4198 120.979 24.9685V9.6434C120.979 9.19207 121.086 8.84837 121.299 8.64448C121.515 8.40848 121.859 8.30078 122.354 8.30078H124.932C125.436 8.30078 125.791 8.40848 126.004 8.64448C126.22 8.84837 126.327 9.19207 126.327 9.6434V18.5145L129.817 13.9598C129.925 13.8201 130.044 13.7238 130.161 13.6711C130.28 13.6161 130.473 13.584 130.72 13.584H134.813C134.997 13.584 135.136 13.639 135.221 13.7467C135.329 13.8314 135.373 13.9598 135.373 14.1224C135.373 14.2943 135.308 14.4546 135.201 14.5944L130.668 19.7815L135.329 25.2802Z" fill="#333333"/>
<path d="M143.923 26.6867C142.44 26.6867 141.109 26.4393 139.949 25.9467C138.81 25.4518 137.896 24.7117 137.22 23.722C136.555 22.7345 136.221 21.5203 136.221 20.0929C136.221 17.8591 136.855 16.1522 138.123 14.97C139.39 13.7786 141.217 13.1875 143.6 13.1875C145.933 13.1875 147.704 13.7786 148.896 14.9379C150.111 16.0881 150.722 17.6758 150.722 19.7286C150.722 20.6084 150.326 21.0483 149.551 21.0483H141.249C141.249 21.8112 141.528 22.3909 142.097 22.7987C142.676 23.1974 143.559 23.4012 144.718 23.4012C145.438 23.4012 146.041 23.3463 146.513 23.218C147.005 23.0782 147.512 22.8743 147.995 22.6176C148.208 22.5191 148.348 22.4779 148.413 22.4779C148.587 22.4779 148.715 22.5856 148.823 22.7987L149.723 24.4849C149.81 24.6682 149.854 24.7965 149.854 24.8836C149.854 25.044 149.746 25.1952 149.531 25.3349C148.8 25.8161 147.984 26.1597 147.072 26.366C146.157 26.579 145.106 26.6867 143.923 26.6867ZM145.965 18.4273C145.965 17.7629 145.77 17.236 145.374 16.8717C144.986 16.4959 144.407 16.3126 143.623 16.3126C142.848 16.3126 142.268 16.5051 141.861 16.8923C141.453 17.268 141.249 17.7743 141.249 18.4273H145.965Z" fill="#333333"/>
<path d="M159.791 26.6866C158.308 26.6866 156.901 26.5353 155.59 26.2353C154.257 25.9145 153.184 25.4723 152.377 24.9156C152.077 24.7209 151.938 24.5169 151.938 24.3038C151.938 24.1641 151.981 24.0129 152.089 23.8525L153.377 21.7905C153.528 21.5751 153.668 21.4789 153.808 21.4789C153.892 21.4789 154.044 21.5317 154.257 21.66C154.903 22.0265 155.655 22.3267 156.482 22.5627C157.309 22.7895 158.125 22.9064 158.941 22.9064C159.78 22.9064 160.38 22.7781 160.767 22.5306C161.175 22.2832 161.37 21.8869 161.37 21.3393C161.37 20.8123 161.155 20.3931 160.715 20.0929C160.295 19.8019 159.489 19.417 158.308 18.9657C156.525 18.2875 155.139 17.5361 154.128 16.709C153.141 15.8612 152.646 14.7226 152.646 13.2723C152.646 11.522 153.269 10.1908 154.516 9.27895C155.783 8.35562 157.437 7.9043 159.521 7.9043C160.971 7.9043 162.206 8.03259 163.229 8.30063C164.269 8.54807 165.151 8.93525 165.88 9.45997C166.182 9.68681 166.331 9.90213 166.331 10.0946C166.331 10.2229 166.267 10.3626 166.16 10.523L164.872 12.585C164.709 12.8004 164.569 12.8966 164.441 12.8966C164.356 12.8966 164.205 12.8439 163.989 12.7156C162.981 12.0489 161.755 11.7052 160.339 11.7052C159.587 11.7052 159.005 11.8335 158.597 12.081C158.189 12.3284 157.997 12.7363 157.997 13.2953C157.997 13.6825 158.093 14.0032 158.308 14.2507C158.512 14.4981 158.801 14.7227 159.156 14.9174C159.521 15.0892 160.08 15.3137 160.854 15.6047L161.347 15.7857C162.658 16.3012 163.678 16.7961 164.42 17.2681C165.172 17.7309 165.752 18.2991 166.139 18.9865C166.526 19.6532 166.719 20.5009 166.719 21.5204C166.719 23.099 166.139 24.3453 164.956 25.2801C163.785 26.2147 162.057 26.6866 159.791 26.6866Z" fill="#333333"/>
<path d="M172.347 26.2904C172.079 26.2904 171.875 26.2469 171.735 26.1599C171.595 26.0636 171.488 25.8918 171.423 25.6237L168.007 14.198C167.965 14.0903 167.942 14.0147 167.942 13.9597C167.942 13.7146 168.126 13.584 168.481 13.584H171.971C172.198 13.584 172.37 13.6275 172.475 13.7237C172.583 13.7879 172.649 13.9184 172.691 14.0903L174.109 20.093L175.913 15.2611C176 15.0457 176.087 14.9059 176.172 14.8303C176.28 14.7456 176.463 14.702 176.708 14.702H178.374C178.622 14.702 178.794 14.7456 178.878 14.8303C178.986 14.9059 179.082 15.0457 179.169 15.2611L180.941 20.093L182.403 14.0903C182.444 13.9184 182.531 13.7879 182.618 13.7237C182.703 13.6275 182.854 13.584 183.091 13.584H186.613C186.957 13.584 187.128 13.7146 187.128 13.9597C187.128 14.0147 187.119 14.0903 187.087 14.198L183.65 25.6237C183.574 25.8918 183.466 26.0636 183.327 26.1599C183.198 26.247 183.003 26.2904 182.747 26.2904H180.146C179.91 26.2904 179.717 26.2469 179.589 26.1599C179.47 26.0544 179.373 25.8711 179.277 25.6237L177.526 20.833L175.785 25.6237C175.72 25.8711 175.613 26.0544 175.464 26.1599C175.333 26.247 175.161 26.2904 174.905 26.2904H172.347Z" fill="#333333"/>
<path d="M193.854 26.6866C192.188 26.6866 190.857 26.1596 189.858 25.0966C188.87 24.0243 188.375 22.5099 188.375 20.5763C188.375 19.0939 188.698 17.7948 189.374 16.6883C190.062 15.5725 191.017 14.7225 192.264 14.1223C193.511 13.4991 194.95 13.1875 196.572 13.1875C197.913 13.1875 199.095 13.3387 200.127 13.6388C201.158 13.9275 202.114 14.3376 202.984 14.8852V25.4723C202.984 25.8069 202.92 26.0222 202.792 26.1276C202.661 26.2353 202.425 26.2903 202.049 26.2903H199.354C199.16 26.2903 199.011 26.2582 198.903 26.2147C198.795 26.1391 198.708 26.0314 198.644 25.8917L198.3 25.0967C197.785 25.6442 197.161 26.0429 196.442 26.2903C195.734 26.5583 194.863 26.6866 193.854 26.6866ZM195.83 23.0897C196.517 23.0897 197.056 22.9178 197.441 22.5856C197.828 22.2511 198.021 21.7677 198.021 21.156V17.032C197.7 16.8716 197.269 16.796 196.753 16.796C195.83 16.796 195.078 17.119 194.51 17.7743C193.962 18.4181 193.682 19.3414 193.682 20.5236C193.682 22.2305 194.402 23.0897 195.83 23.0897Z" fill="#333333"/>
<path d="M206.638 31.6377C206.122 31.6377 205.755 31.53 205.551 31.3147C205.348 31.1017 205.263 30.7671 205.263 30.3066V15.1533C206.058 14.5828 207.046 14.1223 208.249 13.7465C209.452 13.38 210.699 13.1875 212.007 13.1875C217.338 13.1875 220 15.4534 220 19.9646C220 22.0151 219.441 23.6487 218.302 24.8606C217.186 26.075 215.575 26.6866 213.513 26.6866C212.933 26.6866 212.374 26.611 211.815 26.4712C211.299 26.3315 210.847 26.139 210.504 25.8916V30.3066C210.504 30.7671 210.396 31.1016 210.183 31.3146C209.967 31.53 209.601 31.6377 209.097 31.6377H206.638V31.6377ZM212.374 23.1103C213.137 23.1103 213.705 22.8308 214.07 22.2626C214.457 21.683 214.652 20.9085 214.652 19.9417C214.652 18.7939 214.425 17.9874 213.964 17.5269C213.533 17.0526 212.835 16.8166 211.902 16.8166C211.299 16.8166 210.827 16.8922 210.472 17.0526V21.2637C210.472 21.864 210.632 22.3153 210.976 22.6383C211.31 22.9614 211.771 23.1103 212.374 23.1103Z" fill="#333333"/>
<path d="M6.03628 5.31534C5.52068 2.55459 7.64272 0 10.4523 0C12.9273 0 14.9417 2.007 14.9417 4.48827V10.0305C15.5605 9.9869 16.193 9.9663 16.8278 9.9663C17.4442 9.9663 18.0516 9.97546 18.6497 10.019V4.48827C18.6497 2.007 20.6572 0 23.1391 0C25.9487 0 28.0685 2.55459 27.5529 5.31534L26.3337 11.8243C30.5067 13.6389 33.66 16.8075 33.66 20.7803V23.186C33.66 26.4508 31.5012 29.1886 28.4785 31.0261C25.4329 32.8957 21.3079 34 16.8277 34C12.3544 34 8.23393 32.8957 5.18378 31.0261C2.1656 29.1886 0 26.4507 0 23.1859V20.7802C0 16.8281 3.12128 13.6709 7.25545 11.8564L6.03628 5.31534ZM24.7775 12.6721L26.2006 5.0679C26.5604 3.14566 25.0892 1.37466 23.1389 1.37466C21.4156 1.37466 20.0176 2.76992 20.0176 4.48827V11.5334C19.5662 11.4807 19.1101 11.4371 18.6426 11.3937C18.0514 11.3501 17.4441 11.3295 16.8276 11.3295C16.1929 11.3295 15.5604 11.3616 14.9416 11.4051C14.4741 11.4372 14.018 11.4899 13.5666 11.5448V4.48827C13.5666 2.76992 12.171 1.37466 10.4522 1.37466C8.50197 1.37466 7.03075 3.14566 7.38591 5.0679L8.81363 12.7041C4.35636 14.3583 1.37485 17.3551 1.37485 20.7802V23.1859C1.37485 28.3935 8.29341 32.6252 16.8276 32.6252C25.3686 32.6252 32.2848 28.3935 32.2848 23.1859V20.7802C32.285 17.3321 29.2783 14.3262 24.7775 12.6721Z" fill="#633001"/>
<path d="M32.285 23.185C32.285 28.3926 25.3687 32.6243 16.8323 32.6243C8.29348 32.6243 1.375 28.3926 1.375 23.185V20.7793H32.285V23.185Z" fill="#FEDC90"/>
<path d="M7.38591 5.06832C7.03068 3.14607 8.50197 1.37507 10.4522 1.37507C12.171 1.37507 13.5666 2.77033 13.5666 4.48869V11.5453C14.6208 11.4055 15.7093 11.3299 16.8276 11.3299C17.9231 11.3299 18.9932 11.4055 20.0176 11.5338V4.48862C20.0176 2.77026 21.4156 1.375 23.1389 1.375C25.0892 1.375 26.5604 3.146 26.2006 5.06825L24.7775 12.6724C29.2783 14.3266 32.285 17.3325 32.285 20.7806C32.285 25.9883 25.3687 30.2199 16.8277 30.2199C8.29356 30.2199 1.375 25.9883 1.375 20.7806C1.375 17.3554 4.35644 14.3587 8.81378 12.7045L7.38591 5.06832Z" fill="#D1884F"/>
<path d="M12.5343 20.0931C12.5343 21.5113 11.7668 22.6706 10.8228 22.6706C9.87203 22.6706 9.10449 21.5112 9.10449 20.0931C9.10449 18.6657 9.87203 17.5156 10.8228 17.5156C11.7668 17.5156 12.5343 18.6657 12.5343 20.0931Z" fill="#633001"/>
<path d="M24.3898 20.0931C24.3898 21.5113 23.6154 22.6706 22.6715 22.6706C21.7207 22.6706 20.9531 21.5112 20.9531 20.0931C20.9531 18.6657 21.7207 17.5156 22.6715 17.5156C23.6154 17.5156 24.3898 18.6657 24.3898 20.0931Z" fill="#633001"/>
</svg>
