<svg width="184" height="36" viewBox="0 0 184 36" fill="none" xmlns="http://www.w3.org/2000/svg">
<path d="M50.12 9.528C47.384 9.528 45.296 10.416 43.856 12.24C42.584 13.824 41.96 15.912 41.96 18.456C41.96 21.048 42.56 23.112 43.784 24.648C45.176 26.424 47.312 27.336 50.168 27.336C52.016 27.336 53.6 26.808 54.92 25.752C56.336 24.624 57.224 23.064 57.608 21.048H54.872C54.536 22.344 53.96 23.328 53.144 23.976C52.376 24.552 51.368 24.864 50.144 24.864C48.272 24.864 46.88 24.264 45.992 23.112C45.176 22.032 44.768 20.472 44.768 18.456C44.768 16.488 45.176 14.952 46.016 13.848C46.928 12.6 48.272 12 50.072 12C51.272 12 52.256 12.24 53.024 12.768C53.816 13.296 54.344 14.112 54.632 15.24H57.368C57.104 13.512 56.36 12.12 55.112 11.112C53.816 10.056 52.136 9.528 50.12 9.528ZM65.8741 14.256C65.1061 14.256 64.4581 14.472 63.9061 14.928C63.4501 15.264 63.0661 15.744 62.7301 16.368V14.592H60.0181V27H62.7301V20.424C62.7301 19.368 63.0421 18.528 63.7141 17.88C64.2901 17.304 64.9381 17.04 65.6581 17.04C66.2341 17.04 66.8101 17.112 67.4341 17.304V14.568C67.0021 14.352 66.4741 14.256 65.8741 14.256ZM67.6747 14.592L72.5947 26.712L70.4107 31.752H73.3387L80.0587 14.592H77.0827L73.9387 23.424L70.6507 14.592H67.6747ZM87.9155 14.256C86.2835 14.256 85.0355 14.808 84.1715 15.912V14.592H81.6275V31.752H84.3635V25.296C85.3715 26.64 86.6195 27.336 88.0595 27.336C89.8355 27.336 91.2515 26.688 92.2595 25.392C93.1955 24.192 93.6755 22.68 93.6755 20.856C93.6755 18.936 93.1955 17.4 92.2355 16.2C91.1795 14.904 89.7395 14.256 87.9155 14.256ZM87.5075 16.464C88.7075 16.464 89.5955 16.896 90.1715 17.76C90.6275 18.48 90.8675 19.512 90.8675 20.856C90.8675 22.2 90.6035 23.232 90.0995 23.952C89.5235 24.72 88.6115 25.128 87.4115 25.128C86.5235 25.128 85.8035 24.768 85.2275 24.048C84.5795 23.256 84.2675 22.2 84.2675 20.904V20.712C84.2675 19.464 84.5075 18.48 85.0355 17.736C85.6115 16.872 86.4275 16.464 87.5075 16.464ZM99.953 10.584L97.217 11.712V14.592H94.985V16.848H97.217V23.856C97.217 24.864 97.457 25.608 97.937 26.136C98.441 26.712 99.233 27 100.313 27H102.401V24.744H100.769C100.481 24.744 100.289 24.672 100.145 24.528C100.001 24.36 99.953 24.144 99.953 23.856V16.848H102.713V14.592H99.953V10.584ZM110.52 14.256C108.624 14.256 107.112 14.856 105.984 16.104C104.832 17.328 104.28 18.888 104.28 20.808C104.28 22.704 104.832 24.264 105.96 25.464C107.112 26.712 108.624 27.336 110.52 27.336C112.392 27.336 113.928 26.712 115.08 25.464C116.184 24.264 116.76 22.704 116.76 20.808C116.76 18.888 116.184 17.328 115.056 16.104C113.904 14.856 112.392 14.256 110.52 14.256ZM110.52 16.488C111.648 16.488 112.536 16.92 113.16 17.832C113.688 18.6 113.976 19.608 113.976 20.808C113.976 21.984 113.688 22.968 113.16 23.76C112.536 24.648 111.648 25.104 110.52 25.104C109.368 25.104 108.504 24.648 107.88 23.76C107.352 22.992 107.088 22.008 107.088 20.808C107.088 19.608 107.352 18.6 107.88 17.832C108.504 16.92 109.368 16.488 110.52 16.488ZM120.999 23.376C120.471 23.376 120.015 23.544 119.679 23.928C119.295 24.288 119.127 24.744 119.127 25.272C119.127 25.8 119.295 26.232 119.679 26.616C120.015 26.952 120.471 27.144 120.999 27.144C121.527 27.144 121.959 26.952 122.343 26.616C122.703 26.232 122.895 25.8 122.895 25.272C122.895 24.744 122.703 24.288 122.343 23.928C121.959 23.544 121.527 23.376 120.999 23.376ZM132.168 14.256C131.424 14.256 130.752 14.4 130.128 14.712C129.528 15 128.976 15.456 128.496 16.032V14.592H125.76V27H128.496V19.536C128.592 18.552 128.928 17.784 129.504 17.256C130.008 16.776 130.608 16.536 131.28 16.536C133.152 16.536 134.088 17.544 134.088 19.584V27H136.824V19.344C136.824 15.936 135.264 14.256 132.168 14.256ZM144.986 14.256C143.138 14.256 141.674 14.88 140.618 16.152C139.514 17.4 138.986 18.936 138.986 20.784C138.986 22.848 139.562 24.456 140.714 25.632C141.794 26.76 143.258 27.336 145.106 27.336C146.762 27.336 148.13 26.856 149.234 25.92C150.098 25.152 150.674 24.168 150.962 23.016H148.226C147.89 23.712 147.53 24.216 147.122 24.528C146.594 24.912 145.922 25.104 145.082 25.104C144.098 25.104 143.33 24.792 142.802 24.192C142.274 23.592 141.962 22.704 141.866 21.552H151.154C151.154 19.32 150.65 17.568 149.666 16.32C148.586 14.928 147.026 14.256 144.986 14.256ZM145.058 16.488C146.978 16.488 148.058 17.472 148.298 19.488H141.914C142.082 18.504 142.418 17.76 142.922 17.256C143.45 16.728 144.146 16.488 145.058 16.488ZM152.003 14.592L156.179 27H158.723L161.219 17.928L163.691 27H166.235L170.411 14.592H167.387L164.915 23.76L162.467 14.592H159.947L157.499 23.76L155.027 14.592H152.003ZM176.659 14.256C175.123 14.256 173.899 14.568 172.963 15.24C172.003 15.864 171.547 16.752 171.547 17.904C171.547 18.984 172.027 19.824 172.987 20.424C173.587 20.808 174.619 21.168 176.083 21.504C177.331 21.792 178.147 22.008 178.531 22.2C179.251 22.536 179.611 22.992 179.611 23.568C179.611 24.576 178.651 25.104 176.731 25.104C175.819 25.104 175.171 24.936 174.763 24.648C174.355 24.312 174.067 23.76 173.923 22.968H171.259C171.523 25.872 173.371 27.336 176.827 27.336C180.547 27.336 182.419 26.016 182.419 23.376C182.419 22.272 181.915 21.384 180.931 20.76C180.259 20.304 179.203 19.92 177.811 19.584C176.563 19.272 175.747 19.032 175.339 18.864C174.667 18.576 174.355 18.216 174.355 17.832C174.355 17.352 174.547 17.016 174.979 16.8C175.339 16.584 175.891 16.488 176.611 16.488C177.451 16.488 178.075 16.608 178.483 16.872C178.867 17.112 179.155 17.568 179.347 18.192H182.011C181.723 15.552 179.923 14.256 176.659 14.256Z" fill="#333333"/>
<g clip-path="url(#clip0_2939_17048)">
<path d="M18.0004 34.3992C27.0577 34.3992 34.4002 27.0568 34.4002 17.9994C34.4002 8.94205 27.0577 1.59961 18.0004 1.59961C8.94303 1.59961 1.60059 8.94205 1.60059 17.9994C1.60059 27.0568 8.94303 34.3992 18.0004 34.3992Z" fill="white"/>
<path fill-rule="evenodd" clip-rule="evenodd" d="M28.8167 28.8193C25.9277 31.7083 22.086 33.3 18.0005 33.3H18C13.914 33.3 10.0723 31.7088 7.1829 28.8193C4.29345 25.9303 2.70225 22.0887 2.70225 18.0027C2.70225 13.9162 4.29345 10.0746 7.1829 7.1856C10.9503 3.41775 16.1604 1.9233 21.4776 3.0852C21.5513 3.1013 21.6211 3.13176 21.683 3.17484C21.7449 3.21792 21.7978 3.27277 21.8385 3.33627C21.8792 3.39976 21.907 3.47065 21.9203 3.5449C21.9337 3.61914 21.9322 3.69528 21.9161 3.76897C21.9 3.84267 21.8696 3.91246 21.8265 3.97438C21.7834 4.0363 21.7286 4.08913 21.6651 4.12985C21.6016 4.17057 21.5307 4.19839 21.4564 4.21171C21.3822 4.22503 21.306 4.2236 21.2323 4.2075C16.3053 3.1311 11.4804 4.5126 7.99515 7.9974C5.32305 10.6699 3.8511 14.2232 3.8511 18.0027C3.8511 21.7818 5.3226 25.3345 7.99515 28.0071C10.6677 30.6796 14.2209 32.1516 18 32.1511C21.7791 32.1511 25.3323 30.6796 28.0044 28.0071C30.6769 25.335 32.1489 21.7818 32.1489 18.0023C32.1489 14.247 30.6139 10.5768 27.9378 7.93215C27.835 7.82394 27.7784 7.67999 27.7799 7.53076C27.7813 7.38154 27.8408 7.23873 27.9457 7.13256C28.0506 7.0264 28.1926 6.9652 28.3418 6.96191C28.491 6.95862 28.6356 7.01351 28.7451 7.11495C31.6381 9.9738 33.2977 13.9424 33.2977 18.0023C33.2977 22.0882 31.7061 25.9303 28.8167 28.8193ZM25.0942 3.9501C25.247 3.94708 25.3988 3.97455 25.5408 4.03092C25.6828 4.08728 25.8122 4.17141 25.9213 4.27837C26.0304 4.38533 26.117 4.51297 26.1762 4.65383C26.2354 4.79469 26.2658 4.94594 26.2658 5.09872C26.2658 5.25151 26.2354 5.40276 26.1762 5.54362C26.117 5.68448 26.0304 5.81212 25.9213 5.91908C25.8122 6.02604 25.6828 6.11017 25.5408 6.16653C25.3988 6.2229 25.247 6.25037 25.0942 6.24735C24.7936 6.2414 24.5072 6.11777 24.2966 5.90301C24.0861 5.68824 23.9681 5.39948 23.9681 5.09872C23.9681 4.79797 24.0861 4.5092 24.2966 4.29444C24.5072 4.07968 24.7936 3.95605 25.0942 3.9501ZM9.0801 23.2884C9.0801 23.5931 8.95906 23.8853 8.74361 24.1008C8.52816 24.3162 8.23594 24.4373 7.93125 24.4373C7.62656 24.4373 7.33434 24.3162 7.11889 24.1008C6.90344 23.8853 6.7824 23.5931 6.7824 23.2884C6.7824 22.9837 6.90344 22.6915 7.11889 22.476C7.33434 22.2606 7.62656 22.1395 7.93125 22.1395C8.23594 22.1395 8.52816 22.2606 8.74361 22.476C8.95906 22.6915 9.0801 22.9837 9.0801 23.2884ZM10.2321 25.4979C12.2616 27.5994 14.9863 28.7708 17.9046 28.7959C20.8296 28.8162 23.5679 27.6984 25.6315 25.6351C26.6369 24.6351 27.434 23.4457 27.9767 22.1356C28.5193 20.8255 28.7967 19.4207 28.7928 18.0027C28.7967 16.5847 28.5193 15.1799 27.9767 13.8698C27.434 12.5597 26.6369 11.3702 25.6315 10.3702C21.4231 6.16185 14.5751 6.16185 10.3666 10.3702C7.77285 12.964 6.67935 16.6581 7.44075 20.2518C7.45638 20.3256 7.45733 20.4017 7.44353 20.4759C7.42974 20.55 7.40148 20.6207 7.36036 20.6839C7.31924 20.7472 7.26607 20.8017 7.20389 20.8443C7.14171 20.887 7.07173 20.917 6.99795 20.9326C6.92417 20.9483 6.84803 20.9492 6.77389 20.9354C6.69974 20.9216 6.62904 20.8934 6.56582 20.8523C6.50259 20.8111 6.44809 20.758 6.40542 20.6958C6.36274 20.6336 6.33273 20.5636 6.3171 20.4898C5.47425 16.5145 6.68475 12.4276 9.5544 9.558C14.211 4.9014 21.7872 4.9014 26.4438 9.558C31.1004 14.2141 31.1004 21.7908 26.4438 26.4474C24.1857 28.7055 21.1914 29.9452 18.0018 29.9452L17.8947 29.9448C14.6655 29.916 11.6505 28.62 9.405 26.2953C9.35261 26.241 9.31142 26.177 9.28378 26.1068C9.25614 26.0367 9.2426 25.9618 9.24391 25.8864C9.24523 25.8109 9.26138 25.7365 9.29145 25.6674C9.32153 25.5982 9.36493 25.5357 9.41917 25.4833C9.47342 25.4309 9.53746 25.3897 9.60763 25.3621C9.6778 25.3344 9.75272 25.3209 9.82812 25.3222C9.90353 25.3235 9.97793 25.3397 10.0471 25.3697C10.1163 25.3998 10.1788 25.4432 10.2312 25.4974M18 23.4706C19.8108 23.4706 21.501 22.5756 22.5225 21.0775C22.7266 20.7936 23.0336 20.6006 23.378 20.5399C23.7224 20.4791 24.0769 20.5553 24.3659 20.7522C24.6549 20.9491 24.8555 21.2512 24.9249 21.5939C24.9943 21.9367 24.927 22.293 24.7374 22.5868C23.99 23.6851 22.9854 24.584 21.8111 25.2051C20.6368 25.8263 19.3285 26.151 18 26.1508C13.5072 26.1508 9.85185 22.4955 9.85185 18.0027C9.85185 13.5094 13.5072 9.8541 18 9.8541C20.6978 9.8541 23.2164 11.1861 24.7374 13.4181C24.9376 13.7118 25.0129 14.073 24.9468 14.4223C24.8807 14.7715 24.6785 15.0802 24.3848 15.2804C24.0911 15.4806 23.7299 15.556 23.3806 15.4898C23.0314 15.4237 22.7227 15.2216 22.5225 14.9278C22.0208 14.1905 21.3465 13.587 20.5583 13.1699C19.7701 12.7528 18.8918 12.5348 18 12.5347C14.985 12.5347 12.5325 14.9873 12.5325 18.0023C12.5325 21.0173 14.985 23.4706 18 23.4706ZM18 0C8.0586 0 0 8.0586 0 18C0 27.9409 8.0586 36 18 36C27.9409 36 36 27.9409 36 18C36 8.0586 27.9409 0 18 0Z" fill="#0080C8"/>
</g>
<defs>
<clipPath id="clip0_2939_17048">
<rect width="36" height="36" fill="white"/>
</clipPath>
</defs>
</svg>
