<svg width="182" height="36" viewBox="0 0 182 36" fill="none" xmlns="http://www.w3.org/2000/svg">
<g clip-path="url(#clip0_2939_17033)">
<path d="M0 17.7624C0.338115 17.5637 0.575785 17.2539 0.848823 16.9843C1.81601 16.0379 2.77376 15.082 3.72209 14.1167C3.89468 13.9413 3.99088 13.9392 4.1656 14.1167C5.37423 15.3376 6.59087 16.5505 7.81554 17.7554C8.0143 17.9499 7.98319 18.0475 7.80423 18.2243C6.58805 19.4212 5.38036 20.6263 4.18116 21.8396C3.97815 22.0462 3.87134 22.0179 3.68601 21.8297C2.56061 20.6916 1.42248 19.5662 0.290721 18.4344C0.20018 18.3446 0.0983234 18.2675 0.00141609 18.184L0 17.7624Z" fill="#F0B90B"/>
<path d="M29.0665 24.989C29.0177 25.0428 28.966 25.105 28.9087 25.1623C25.3248 28.7368 21.7425 32.3124 18.1619 35.8893C18.0013 36.0499 17.9207 36.0308 17.7729 35.8808C14.1932 32.303 10.6093 28.7292 7.02111 25.1595C6.84568 24.9855 6.87964 24.8977 7.03455 24.7457C8.25733 23.5389 9.47445 22.326 10.6859 21.107C10.891 20.8998 10.9964 20.9323 11.1811 21.1191C13.3505 23.2942 15.532 25.458 17.6979 27.6366C17.92 27.8601 18.0268 27.8488 18.2433 27.6366C20.4014 25.4665 22.5744 23.3119 24.7332 21.1431C24.9454 20.9309 25.0565 20.9012 25.285 21.1332C26.4719 22.3428 27.68 23.5318 28.879 24.7301C28.9526 24.7987 29.0551 24.8532 29.0665 24.989Z" fill="#F0B90B"/>
<path d="M29.0922 11.0121C29.032 11.0828 28.9868 11.1536 28.9302 11.2087C27.6895 12.448 26.4424 13.6809 25.2102 14.9294C25.0143 15.1289 24.9273 15.0193 24.7971 14.887C22.6232 12.7154 20.4502 10.5431 18.2781 8.37013C18.0391 8.12963 17.9202 8.1268 17.6797 8.37013C15.5209 10.5396 13.3437 12.6906 11.1841 14.8594C10.9719 15.0751 10.8707 15.0525 10.6713 14.8502C9.47255 13.6359 8.26392 12.4308 7.04539 11.2349C6.86501 11.0574 6.87916 10.9718 7.05105 10.8006C10.6147 7.25676 14.1734 3.70727 17.7271 0.152113C17.9167 -0.0381652 18.0221 -0.0600921 18.2223 0.144333C21.7661 3.69147 25.3149 7.23437 28.8686 10.773C28.9443 10.8452 29.0122 10.9251 29.0922 11.0121Z" fill="#F0B90B"/>
<path d="M17.9722 22.1084C17.8951 22.0377 17.8307 21.9895 17.7741 21.9323C16.5165 20.6788 15.2581 19.4256 13.999 18.1727C13.8646 18.0397 13.8349 17.9605 13.9856 17.8091C15.2588 16.5524 16.5245 15.2895 17.7826 14.0205C17.9481 13.8543 18.0316 13.8946 18.1731 14.0375C19.4171 15.2881 20.6667 16.5338 21.9221 17.7744C22.1031 17.9527 22.0833 18.0503 21.9129 18.2187C20.6651 19.4502 19.4279 20.6944 18.1865 21.928C18.1229 21.9917 18.0486 22.0469 17.9722 22.1084Z" fill="#F0B90B"/>
<path d="M36.054 17.9522C36.0589 18.0689 35.9769 18.1114 35.9217 18.1644C34.681 19.4037 33.4405 20.6432 32.2003 21.883C32.0496 22.035 31.9612 22.0372 31.8084 21.883C30.5724 20.639 29.331 19.4004 28.0842 18.1672C27.9427 18.0258 27.935 17.9494 28.08 17.8065C29.3367 16.5672 30.5885 15.3225 31.8353 14.0724C31.9867 13.921 32.0694 13.955 32.2017 14.0872C33.4386 15.3293 34.6791 16.5686 35.9231 17.8051C35.9726 17.8567 36.0165 17.9105 36.054 17.9522Z" fill="#F0B90B"/>
<path d="M55.2621 17.8176C55.7655 18.033 56.2535 18.2826 56.7228 18.5646C58.4105 19.615 58.9403 21.1931 58.7897 23.0754C58.5937 25.5129 56.9647 26.8901 54.6764 27.49C53.7055 27.7359 52.707 27.856 51.7055 27.8472C48.7481 27.8472 45.7899 27.8437 42.8325 27.855C42.5453 27.855 42.4866 27.7687 42.4873 27.5013C42.4944 21.3389 42.4944 15.1764 42.4873 9.01393C42.4873 8.74514 42.5439 8.65672 42.8325 8.66026C45.7666 8.67299 48.7035 8.65601 51.6341 8.67653C52.9533 8.68572 54.2294 8.9234 55.4014 9.58619C58.5435 11.3616 58.4862 15.9524 55.5132 17.6599C55.4418 17.6953 55.3753 17.7441 55.2621 17.8176ZM49.5927 24.135V24.1159C50.4754 24.1159 51.3611 24.1244 52.2417 24.1124C52.666 24.0969 53.0834 24.0009 53.4718 23.8294C54.2753 23.4984 54.6361 22.8773 54.6382 22.0328C54.6403 21.1882 54.189 20.5388 53.411 20.2283C52.9044 20.034 52.3654 19.938 51.8229 19.9454C50.1868 19.9411 48.55 19.9454 46.9132 19.9362C46.6642 19.9362 46.5963 20.0069 46.5984 20.2545C46.6098 21.4414 46.6126 22.6283 46.5984 23.8153C46.5984 24.0919 46.6925 24.147 46.945 24.1435C47.8264 24.1272 48.712 24.135 49.5927 24.135ZM49.2998 12.3795C48.3987 12.3795 47.6574 12.3887 46.916 12.3746C46.6692 12.3696 46.5963 12.4453 46.5984 12.6929C46.6107 13.8317 46.6107 14.9708 46.5984 16.1101C46.5984 16.3563 46.6642 16.4284 46.9125 16.4263C48.1949 16.4136 49.4781 16.4206 50.7605 16.4171C51.2318 16.4172 51.7002 16.343 52.1483 16.1971C52.7361 16.0047 53.2426 15.709 53.4541 15.071C53.8679 13.826 53.2207 12.7431 51.8859 12.4743C50.9755 12.2911 50.056 12.4213 49.2998 12.3795Z" fill="#F0B90B"/>
<path d="M125.54 15.8213V16.1997C125.54 19.9487 125.536 23.7033 125.548 27.4551C125.548 27.7784 125.464 27.8675 125.14 27.8611C124.008 27.8408 122.876 27.8408 121.745 27.8611C121.423 27.8668 121.334 27.784 121.335 27.4565C121.346 21.9519 121.348 16.4475 121.343 10.9434C121.343 10.2848 121.35 9.62628 121.339 8.96774C121.335 8.74987 121.381 8.6565 121.628 8.65933C122.76 8.67206 123.891 8.67206 125.023 8.65933C125.261 8.65933 125.351 8.8008 125.464 8.94227L133.705 19.7457C133.869 19.9579 134.036 20.1701 134.264 20.4672V20.0279C134.264 16.3702 134.269 12.7125 134.255 9.05474C134.255 8.72016 134.356 8.65154 134.668 8.65649C135.81 8.67418 136.953 8.66993 138.096 8.65649C138.34 8.65649 138.445 8.68832 138.444 8.9748C138.435 15.1613 138.435 21.3478 138.444 27.5343C138.444 27.8173 138.348 27.8583 138.1 27.8548C137.11 27.842 136.119 27.8442 135.129 27.8548C135.037 27.8604 134.946 27.8415 134.864 27.7999C134.782 27.7584 134.712 27.6958 134.662 27.6185C131.717 23.754 128.768 19.8928 125.815 16.0349C125.752 15.9528 125.684 15.875 125.619 15.7958L125.54 15.8213Z" fill="#F0B90B"/>
<path d="M87.6673 20.4742V14.9385C87.6673 12.9628 87.6722 10.9879 87.6616 9.01225C87.6616 8.74346 87.7196 8.65151 88.0075 8.65858C89.1737 8.67556 90.3399 8.67556 91.5061 8.65858C91.8046 8.65363 91.8463 8.76186 91.8456 9.02075C91.839 14.5947 91.8374 20.1681 91.8407 25.7411C91.8407 26.341 91.8301 26.9436 91.8463 27.5406C91.8527 27.7797 91.794 27.8646 91.5379 27.8604C90.5363 27.8455 89.5347 27.849 88.5338 27.8604C88.4418 27.8666 88.3498 27.8483 88.2672 27.8074C88.1846 27.7665 88.1143 27.7045 88.0634 27.6276C86.4044 25.4462 84.7424 23.2673 83.0773 21.091C81.771 19.3797 80.4645 17.6693 79.1578 15.9599C79.1034 15.8891 79.068 15.7929 78.9195 15.7625V16.1395C78.9195 19.914 78.9145 23.6884 78.9272 27.4628C78.9272 27.796 78.8282 27.8674 78.5141 27.8625C77.3718 27.8441 76.2294 27.8491 75.0863 27.8625C74.8416 27.8625 74.7376 27.8271 74.7383 27.5428C74.7468 21.3577 74.7468 15.1726 74.7383 8.98749C74.7383 8.70809 74.8338 8.66071 75.0842 8.66353C76.1447 8.67627 77.2058 8.67627 78.2673 8.66353C78.5375 8.66 78.7129 8.73426 78.8827 8.9585C81.6923 12.6579 84.508 16.3532 87.3299 20.0441C87.419 20.1566 87.5124 20.2783 87.6673 20.4742Z" fill="#F0B90B"/>
<path d="M166.518 18.2586C166.518 15.1894 166.522 12.1202 166.511 9.05096C166.511 8.74892 166.574 8.65555 166.895 8.65625C171.478 8.66851 176.06 8.66851 180.643 8.65625C180.946 8.65625 181.011 8.74751 181.006 9.03186C180.989 10.0314 180.986 11.0308 181.006 12.0303C181.012 12.3366 180.939 12.4229 180.621 12.4215C177.452 12.4088 174.283 12.4215 171.114 12.4059C170.773 12.4059 170.677 12.4986 170.684 12.8374C170.706 13.8716 170.704 14.9064 170.684 15.9413C170.678 16.2447 170.78 16.3091 171.065 16.3084C173.833 16.2985 176.602 16.3084 179.37 16.295C179.696 16.295 179.79 16.382 179.783 16.7081C179.762 17.7068 179.765 18.707 179.783 19.7058C179.788 19.9987 179.702 20.0828 179.407 20.0821C176.639 20.0715 173.871 20.0821 171.102 20.0694C170.793 20.0694 170.678 20.1274 170.683 20.469C170.707 21.5506 170.704 22.6328 170.683 23.7144C170.678 24.0256 170.764 24.1091 171.077 24.1084C174.246 24.0963 177.416 24.1084 180.585 24.0921C180.932 24.0921 181.014 24.1826 181.006 24.5165C180.982 25.5273 180.991 26.5388 181.002 27.5497C181.002 27.7718 180.953 27.8524 180.712 27.8524C176.083 27.8453 171.453 27.8453 166.823 27.8524C166.524 27.8524 166.511 27.7258 166.512 27.4952C166.519 24.4177 166.521 21.3389 166.518 18.2586Z" fill="#F0B90B"/>
<path d="M96.4102 27.8507C96.5849 27.4334 96.7405 27.057 96.8996 26.6829C99.431 20.7515 101.96 14.8196 104.487 8.88728C104.608 8.60434 104.749 8.50956 105.053 8.51592C106.102 8.53714 107.151 8.53078 108.199 8.51946C108.441 8.51946 108.573 8.57534 108.676 8.81655C111.323 15.0412 113.977 21.2659 116.636 27.4907C116.79 27.8507 116.787 27.8535 116.406 27.8535C115.156 27.8535 113.907 27.8493 112.657 27.8592C112.435 27.8592 112.33 27.7934 112.246 27.5826C111.75 26.3384 111.231 25.1069 110.735 23.8605C110.644 23.6342 110.542 23.5415 110.282 23.5422C107.783 23.5545 105.285 23.5545 102.788 23.5422C102.553 23.5422 102.442 23.6059 102.352 23.8322C101.857 25.0765 101.337 26.308 100.839 27.5529C100.754 27.7651 100.665 27.8627 100.414 27.8599C99.1016 27.8464 97.7838 27.8507 96.4102 27.8507ZM106.542 13.5997C105.669 15.7217 104.838 17.7504 103.999 19.7939H109.087C108.242 17.7391 107.411 15.7147 106.542 13.5997Z" fill="#F0B90B"/>
<path d="M153.695 8.34766C155.702 8.34766 157.456 8.66524 159.083 9.5367C159.856 9.9505 160.538 10.4874 161.185 11.0752C161.353 11.228 161.397 11.3298 161.22 11.5251C160.436 12.4022 159.664 13.2902 158.905 14.189C158.74 14.3842 158.655 14.3382 158.495 14.2031C157.629 13.4682 156.706 12.8217 155.603 12.4857C152.24 11.4614 148.907 13.5085 148.342 16.9752C147.988 19.1461 148.431 21.1224 150.014 22.7359C151.327 24.0749 152.969 24.4336 154.783 24.2213C156.246 24.0516 157.401 23.2855 158.476 22.3638C158.859 22.0356 158.856 22.0293 159.204 22.3815C159.916 23.1009 160.619 23.8252 161.341 24.5375C161.499 24.6939 161.52 24.7879 161.354 24.9619C159.47 26.9461 157.19 28.0319 154.429 28.1556C152.017 28.2639 149.797 27.7539 147.829 26.3363C145.495 24.6528 144.209 22.3405 143.878 19.4991C143.583 16.9632 144.114 14.6084 145.585 12.5062C147.232 10.1514 149.518 8.82795 152.362 8.43254C152.866 8.36392 153.373 8.38656 153.695 8.34766Z" fill="#F0B90B"/>
<path d="M64.1201 18.2425C64.1201 15.1733 64.1236 12.1041 64.1137 9.03486C64.1137 8.75192 64.1696 8.65147 64.4752 8.65642C65.6649 8.67481 66.8554 8.67057 68.0452 8.65642C68.2956 8.65642 68.36 8.7307 68.36 8.97473C68.3534 15.1603 68.3534 21.3456 68.36 27.5307C68.36 27.7691 68.3069 27.8568 68.0501 27.854C66.8491 27.8408 65.6466 27.8408 64.4426 27.854C64.1724 27.8575 64.1116 27.7769 64.1123 27.5173C64.1222 24.4266 64.1248 21.335 64.1201 18.2425Z" fill="#F0B90B"/>
</g>
<defs>
<clipPath id="clip0_2939_17033">
<rect width="181.008" height="36" fill="white"/>
</clipPath>
</defs>
</svg>
