<svg width="59" height="60" viewBox="0 0 59 60" fill="none" xmlns="http://www.w3.org/2000/svg">
<path d="M26.9818 7.21664C26.7781 11.9947 26.8356 16.778 26.9139 21.5561C27.0288 28.9712 26.9139 36.3811 27.0497 43.7963C27.0984 46.7728 27.1228 49.7493 27.1228 52.7258C27.1599 53.8032 26.9609 54.8756 26.5396 55.8679C26.1183 56.8602 25.485 57.7483 24.6842 58.4699C24.0715 59.0445 23.3361 59.472 22.5336 59.7199C21.7311 59.9678 20.8827 60.0297 20.0527 59.9009C19.2228 59.772 18.4331 59.4558 17.7435 58.9763C17.054 58.4967 16.4828 57.8664 16.0732 57.1331C15.6034 56.2491 14.9852 55.4525 14.2455 54.778C14.1446 54.7152 14.0654 54.6229 14.0187 54.5136C13.972 54.4043 13.96 54.2833 13.9844 54.167C14.2918 52.626 14.9374 51.1724 15.8748 49.9112C16.7858 48.7516 18.1002 47.9778 19.5562 47.744C19.7512 47.7218 19.9426 47.6744 20.1254 47.6031C20.333 47.5303 20.5064 47.3835 20.6124 47.1907C20.7184 46.998 20.7495 46.7729 20.6998 46.5587C20.6619 46.3646 20.5533 46.1915 20.3951 46.0729C20.2369 45.9542 20.0403 45.8985 19.8434 45.9164C18.7912 45.8976 17.7553 46.1783 16.8565 46.7258C14.4962 48.0469 13.2011 50.1618 12.4231 52.684C12.1776 53.5091 12.1933 53.4516 11.3787 53.2636C8.54316 52.6161 7.08102 50.7049 6.51183 47.9999C6.4458 47.563 6.24291 47.1583 5.93233 46.8439C5.62175 46.5296 5.21947 46.3218 4.78337 46.2506C2.08885 45.5247 0.762479 43.5561 0.229842 40.9242C0.0938471 39.8461 0.130867 38.7531 0.339503 37.6866C0.489258 36.5671 0.539933 35.4365 0.490939 34.308C0.490939 33.8537 0.626709 33.7075 1.09668 33.7336C4.30817 33.9164 6.73637 35.3002 8.22462 38.2192C8.31136 38.3991 8.40902 38.5735 8.51705 38.7414C8.56082 38.842 8.62459 38.9327 8.70447 39.0078C8.78435 39.083 8.87868 39.1412 8.98173 39.1788C9.08478 39.2164 9.1944 39.2327 9.30392 39.2266C9.41345 39.2205 9.52061 39.1923 9.61888 39.1435C9.8341 39.0522 10.0052 38.8806 10.0959 38.6651C10.1866 38.4496 10.1897 38.2072 10.1045 37.9895C9.82604 37.1623 9.41127 36.3875 8.87736 35.6971C7.21157 33.4621 4.91914 32.3759 2.22984 31.9634C1.71437 31.8588 1.18918 31.8098 0.663263 31.8172C0.245508 31.8537 0.0992939 31.5978 0.104516 31.2114C0.0608877 30.5131 0.0994461 29.812 0.219398 29.1226C0.467562 28.1563 0.569651 27.1583 0.52227 26.1618C0.52227 25.7388 0.616265 25.4777 1.11235 25.5665C4.07318 26.1096 6.92958 26.9503 9.39956 28.7832C12.3656 30.9764 13.9792 34.0051 14.7468 37.5404C14.8043 37.7963 14.8304 38.0626 14.9087 38.3028C15.0654 38.825 15.3369 39.2793 15.9531 39.1905C16.5693 39.1018 16.7468 38.6422 16.7103 38.0626C16.5169 36.3756 16.0439 34.7326 15.3108 33.201C13.222 28.637 9.56666 25.9477 4.86692 24.5221C3.55619 24.1223 2.21488 23.8306 0.856474 23.6501C0.651026 23.6473 0.455006 23.5634 0.311194 23.4167C0.167382 23.2699 0.0874527 23.0722 0.0888501 22.8668C-0.143215 21.519 -0.00437786 20.1335 0.490499 18.8586C0.985377 17.5837 1.81766 16.4674 2.89825 15.6292C3.76509 14.9033 4.62671 14.1775 5.50922 13.4412C5.75465 13.2323 5.96352 13.0652 6.29251 13.3472C8.78721 15.3735 10.7574 17.9706 12.0366 20.919C12.6382 22.3418 12.9914 23.8572 13.081 25.3994C13.1332 26.3446 13.5562 26.8824 14.1672 26.8302C14.7781 26.778 15.0862 26.1931 14.9922 25.2271C14.6287 21.5214 13.1338 18.0173 10.7103 15.1905C9.69187 13.9737 8.5759 12.842 7.37345 11.8067C7.30278 11.7666 7.24245 11.7106 7.19726 11.643C7.15206 11.5755 7.12325 11.4984 7.11311 11.4177C7.10296 11.3371 7.11178 11.2553 7.13884 11.1786C7.16591 11.102 7.21048 11.0328 7.26901 10.9764C8.26372 9.43494 9.75082 8.27544 11.4883 7.68661C12.0546 7.52246 12.5857 7.25514 13.0549 6.8981C13.106 6.84985 13.1664 6.81242 13.2323 6.78805C13.2983 6.76369 13.3685 6.75289 13.4387 6.7563C13.5089 6.75971 13.5777 6.77727 13.641 6.80792C13.7042 6.83856 13.7607 6.88167 13.8069 6.93465C16.5536 9.09653 18.4753 11.7649 18.9452 15.3263C18.9727 15.5194 19.0163 15.7098 19.0758 15.8955C19.1245 16.1006 19.249 16.2798 19.4243 16.397C19.5996 16.5142 19.8128 16.5607 20.021 16.5273C20.2413 16.5141 20.4484 16.4179 20.6006 16.258C20.7527 16.0981 20.8386 15.8864 20.8408 15.6657C20.8443 15.1449 20.774 14.6263 20.6319 14.1253C19.9068 10.7816 18.008 7.80828 15.2795 5.74405C14.9191 5.45162 14.8982 5.24797 15.0862 4.83021C15.588 3.5521 16.3654 2.40032 17.363 1.45685C17.992 0.89229 18.7418 0.479118 19.555 0.248952C20.3683 0.018786 21.2234 -0.0222724 22.055 0.128919C22.8865 0.280111 23.6724 0.619545 24.3526 1.12124C25.0328 1.62294 25.5892 2.2736 25.9792 3.02343C26.6745 4.30938 27.0202 5.75526 26.9818 7.21664ZM20.7155 21.5456C20.578 21.5442 20.4418 21.5718 20.3157 21.6266C20.1897 21.6814 20.0766 21.7623 19.9839 21.8638C19.8912 21.9653 19.8211 22.0853 19.778 22.2159C19.7348 22.3464 19.7198 22.4846 19.7338 22.6213C19.5993 24.7545 19.9252 26.8916 20.6894 28.8877C21.0045 29.6892 21.4769 30.4195 22.0787 31.0356C22.6804 31.6517 23.3994 32.1412 24.1933 32.4751C24.3283 32.5679 24.4833 32.6275 24.6457 32.6493C24.8081 32.6711 24.9733 32.6543 25.128 32.6004C25.3151 32.5381 25.4787 32.4202 25.5972 32.2626C25.7156 32.1049 25.7833 31.915 25.7912 31.7179C25.7897 31.507 25.7173 31.3027 25.5857 31.1379C25.454 30.9731 25.2707 30.8574 25.0654 30.8093C23.9891 30.4201 23.1093 29.6228 22.6163 28.59C22.1831 27.6886 21.8941 26.7247 21.7599 25.7336C21.6512 24.7192 21.6076 23.6988 21.6293 22.6788C21.598 21.9843 21.2272 21.5456 20.705 21.5456H20.7155ZM10.9661 46.5221C11.2481 46.4908 11.7233 46.449 12.1985 46.3863C12.9766 46.2715 13.4622 45.8119 13.3996 45.2636C13.3369 44.7153 12.7259 44.3968 11.8904 44.5326C11.8278 44.5326 11.7651 44.5639 11.7024 44.5691C9.76509 44.7884 8.13585 44.2819 6.95569 42.6318C6.34321 41.7226 5.86321 40.731 5.5301 39.6866C5.27423 38.9555 4.80425 38.6422 4.30817 38.7884C3.81209 38.9347 3.5301 39.5456 3.78598 40.3185C4.07505 41.253 4.4729 42.1504 4.97136 42.9921C5.55345 44.0714 6.41975 44.9709 7.47644 45.5931C8.53314 46.2154 9.73994 46.5366 10.9661 46.5221ZM24.3865 36.6736C24.3865 36.1931 24.3865 35.7963 23.7494 35.885C22.8045 36.0103 21.9378 36.4759 21.3116 37.1945C20.6854 37.9131 20.3428 38.8354 20.3479 39.7886C20.353 40.7417 20.7055 41.6603 21.3394 42.3721C21.9733 43.0839 22.845 43.5401 23.7912 43.6553C24.0419 43.6814 24.2664 43.6866 24.3656 43.3785C24.4253 43.2499 24.4549 43.1095 24.4523 42.9678C24.4496 42.826 24.4148 42.6868 24.3504 42.5605C24.286 42.4342 24.1937 42.3242 24.0806 42.2389C23.9674 42.1535 23.8363 42.095 23.6972 42.0678C23.2043 41.8999 22.7729 41.5884 22.4584 41.1734C22.1438 40.7584 21.9606 40.2588 21.9322 39.7388C21.9516 39.2021 22.1473 38.6867 22.489 38.2723C22.8307 37.858 23.2993 37.5677 23.8225 37.4464C24.3343 37.3472 24.4387 37.0756 24.3865 36.6736Z" fill="#3491FA"/>
<path d="M31.541 48.9815C31.7342 40.8092 31.5723 32.6316 31.7081 24.4384C31.7917 19.3522 31.7812 14.2661 31.7708 9.18514C31.7708 7.77521 31.588 6.37574 31.917 4.97104C32.1607 3.73708 32.7753 2.60691 33.6786 1.73162C34.5818 0.856327 35.7308 0.277622 36.9718 0.072865C39.024 -0.277004 40.6272 0.662943 41.9483 2.07809C42.7012 2.98131 43.2994 4.00296 43.7185 5.10159C43.8595 5.40446 43.6402 5.52978 43.4522 5.68122C41.5906 7.12642 40.0847 8.97883 39.0501 11.0964C38.4442 12.3998 38.0375 13.7869 37.8439 15.2112C37.8309 15.3415 37.8309 15.4727 37.8439 15.6029C37.8265 15.8332 37.9007 16.061 38.0502 16.237C38.1998 16.413 38.4127 16.5229 38.6428 16.5428C38.7566 16.5644 38.8736 16.5621 38.9864 16.5361C39.0992 16.5101 39.2054 16.4609 39.2982 16.3917C39.391 16.3224 39.4684 16.2347 39.5254 16.1339C39.5825 16.0332 39.6181 15.9217 39.6298 15.8065C39.8146 14.6703 40.103 13.5534 40.4914 12.4697C41.4525 10.2674 42.9761 8.3566 44.9091 6.92926C45.1076 6.76738 45.3165 6.66816 45.5514 6.87182C46.1885 7.43579 47.0136 7.61856 47.7708 7.91621C49.2436 8.53605 50.5007 9.57695 51.3843 10.9084C51.6611 11.3157 51.6089 11.5454 51.2329 11.8797C48.4078 14.4123 45.9953 17.2321 44.6846 20.8562C44.1761 22.2915 43.8464 23.784 43.7029 25.3C43.6037 26.2609 43.9535 26.83 44.5749 26.8666C45.1964 26.9032 45.5514 26.3444 45.6193 25.4515C45.87 21.8588 47.4 18.8248 49.682 16.1146C50.4811 15.1759 51.3542 14.3028 52.293 13.5037C52.6272 13.2217 52.8517 13.2008 53.1807 13.5037C54.1154 14.3183 55.0971 15.0703 56.0214 15.9005C57.0408 16.7625 57.8139 17.8789 58.2624 19.1363C58.7109 20.3936 58.8187 21.7473 58.5749 23.0598C58.4757 23.7439 57.964 23.7126 57.5306 23.7752C55.4335 24.036 53.3827 24.5861 51.4366 25.4097C46.0789 27.7857 43.0815 31.9789 42.0058 37.676C42.0032 37.6986 42.0032 37.7213 42.0058 37.7439C41.9118 38.5794 42.1781 39.1277 42.7107 39.2217C43.2434 39.3157 43.6611 38.8562 43.8282 38.0206C44.235 35.6552 45.1762 33.4138 46.5802 31.4671C48.6689 28.736 51.4627 27.1381 54.7107 26.2452C55.6298 25.9893 56.5697 25.817 57.5044 25.6133C57.823 25.5455 58.2042 25.5246 58.1572 25.9789C57.9953 27.6499 58.6794 29.2374 58.5802 30.8979C58.5436 31.8274 58.5802 31.7961 57.6298 31.864C53.9744 32.1199 50.9509 33.5193 49.0867 36.8666C48.8529 37.2569 48.677 37.679 48.5645 38.1199C48.5117 38.3276 48.5354 38.5475 48.6312 38.7392C48.7271 38.931 48.8888 39.0818 49.0867 39.1642C49.1782 39.21 49.2779 39.2372 49.3799 39.2443C49.482 39.2515 49.5844 39.2384 49.6814 39.2059C49.7785 39.1734 49.8681 39.1221 49.9453 39.0549C50.0224 38.9877 50.0856 38.906 50.1311 38.8144C50.2877 38.5794 50.4183 38.3287 50.5541 38.0833C52.0789 35.2165 54.5332 33.9058 57.7133 33.7543C58.105 33.7543 58.2355 33.9005 58.199 34.2452C58.2225 35.916 58.3375 37.5843 58.5436 39.2426C58.7838 42.3392 56.977 45.7021 53.6089 46.3601C53.2707 46.4056 52.9566 46.5603 52.7144 46.8006C52.4721 47.041 52.315 47.3538 52.2668 47.6917C52.1037 48.4805 51.8551 49.2492 51.5253 49.9841C51.1681 50.7808 50.6308 51.4836 49.9557 52.0373C49.2806 52.5909 48.4862 52.9803 47.635 53.1747C46.5279 53.4671 46.5227 53.4985 46.1729 52.4123C45.4 50.0102 44.0841 48.0206 41.8439 46.7569C41.0101 46.2674 40.0684 45.9911 39.1024 45.9528C38.5802 45.9528 38.058 46.0102 37.964 46.6577C37.87 47.2165 38.2146 47.6394 38.9039 47.7595C39.6833 47.8629 40.4345 48.1191 41.1147 48.5133C41.7948 48.9076 42.3904 49.4323 42.8674 50.0572C43.767 51.3025 44.3869 52.7276 44.6846 54.2347C44.7086 54.3471 44.698 54.4642 44.6542 54.5704C44.6104 54.6767 44.5354 54.7672 44.4392 54.83C43.6968 55.502 43.0782 56.2992 42.6115 57.1851C42.1995 57.9248 41.6234 58.56 40.9274 59.0421C40.2314 59.5241 39.4341 59.8401 38.5969 59.9657C37.7596 60.0913 36.9047 60.0232 36.0979 59.7665C35.2911 59.5099 34.5539 59.0716 33.9431 58.4854C32.2616 56.9606 31.5984 55.0337 31.5358 52.8405C31.5097 51.5454 31.541 50.2609 31.541 48.9815ZM38.9457 23.4985C38.964 23.1732 38.964 22.8472 38.9457 22.522C38.9466 22.3954 38.9216 22.27 38.8723 22.1534C38.823 22.0369 38.7504 21.9316 38.659 21.8441C38.5675 21.7566 38.4592 21.6886 38.3406 21.6445C38.222 21.6003 38.0956 21.5808 37.9692 21.5872C37.3843 21.5872 37.1494 22.0154 37.071 22.5272C37.0475 22.786 37.0475 23.0464 37.071 23.3052C37.1138 24.37 37.0279 25.436 36.8152 26.4802C36.387 28.4541 35.588 30.1355 33.5201 30.9084C33.4063 30.9463 33.3016 31.0075 33.2127 31.088C33.1238 31.1685 33.0525 31.2665 33.0034 31.376C32.9543 31.4855 32.9285 31.6039 32.9276 31.7239C32.9266 31.8438 32.9506 31.9626 32.9979 32.0729C33.1031 32.2988 33.2887 32.4775 33.5185 32.574C33.7482 32.6706 34.0057 32.6781 34.2407 32.5951C35.4643 32.1751 36.5193 31.371 37.2486 30.3026C38.6742 28.2713 38.8308 25.8797 38.9457 23.4985ZM47.9431 46.5742C48.4653 46.4906 49.0397 46.4384 49.6037 46.2974C52.7055 45.5141 54.3034 42.5794 54.9927 39.9528C55.0288 39.8362 55.0403 39.7134 55.0265 39.5921C55.0127 39.4708 54.9739 39.3537 54.9126 39.2482C54.8513 39.1427 54.7687 39.0511 54.6701 38.9791C54.5716 38.9071 54.4591 38.8564 54.34 38.83C53.8178 38.6734 53.5149 38.9867 53.2956 39.394C53.1963 39.5878 53.1159 39.7906 53.0554 39.9998C52.8261 40.6798 52.5342 41.3371 52.1833 41.9632C51.4 43.3209 50.34 44.3287 48.7212 44.5742C48.0271 44.671 47.322 44.6569 46.6324 44.5324C46.497 44.4896 46.3544 44.4741 46.213 44.4866C46.0715 44.4992 45.9339 44.5397 45.8082 44.6057C45.6825 44.6718 45.571 44.762 45.4804 44.8713C45.3897 44.9806 45.3216 45.1068 45.2799 45.2426C45.1911 45.7648 45.6089 46.2347 46.3243 46.3705C46.8308 46.475 47.353 46.5063 47.9431 46.5742ZM38.3086 39.7857C38.3049 38.8981 37.9971 38.0387 37.4364 37.3507C36.8758 36.6627 36.0962 36.1877 35.2277 36.005C34.8935 35.9266 34.4757 35.6812 34.3086 36.2347C34.105 36.8927 34.3086 37.3313 34.883 37.4671C35.195 37.5413 35.4889 37.6774 35.7472 37.8674C36.0055 38.0574 36.223 38.2974 36.3867 38.5731C36.5503 38.8488 36.6569 39.1547 36.7 39.4724C36.7431 39.7902 36.7219 40.1134 36.6376 40.4227C36.5136 40.8537 36.2745 41.2428 35.9461 41.5483C35.6176 41.8537 35.2122 42.0639 34.7734 42.1564C34.3086 42.2765 34.1415 42.7256 34.2982 43.3627C34.4183 43.8483 34.7682 43.7125 35.0815 43.6499C35.99 43.4864 36.8117 43.0077 37.402 42.298C37.9924 41.5883 38.3134 40.6931 38.3086 39.77V39.7857Z" fill="#3491FA"/>
</svg>
